# Blender v2.78 (sub 0) OBJ File: 'city.obj.blend'
# www.blender.org
mtllib city.obj.mtl
o Cube.002_Cube.000
v 3.250002 0.002410 -3.999998
v 3.000002 0.003412 -3.999998
v 3.250002 0.003412 -3.999998
v 3.250002 -0.001600 -3.999998
v 3.250002 -0.000598 -3.999998
v 4.000002 0.006418 -3.249998
v 4.000002 0.005416 -2.999998
v 3.500002 0.006418 -2.749998
v 3.750002 0.006418 -2.749998
v 3.000000 0.006418 -2.749998
v 3.250002 0.006418 -2.749998
v 4.000002 0.006418 -3.749998
v 3.250002 0.000404 -3.999998
v 3.250002 0.001406 -3.999998
v 4.000002 0.004414 -3.999998
v 4.000116 0.569238 -4.003402
v 4.000116 0.570242 -4.003402
v 4.000002 0.006418 -3.499998
v 4.000116 0.572246 -3.503402
v 3.000002 0.006418 -3.499998
v 3.000114 0.572246 -3.253402
v 3.000114 0.572246 -3.503402
v 3.250114 0.572246 -2.753402
v 3.250002 -0.002604 -3.999998
v 3.500002 -0.002604 -3.999998
v 3.750000 -0.002604 -3.999998
v 4.000000 0.006418 -2.749998
v 4.000000 0.005416 -2.749998
v 3.000002 0.006418 -2.999998
v 4.000114 0.572246 -3.003402
v 4.000002 0.006418 -2.999998
v 3.000002 0.006418 -3.999998
v 3.000116 0.571244 -4.003402
v 3.000002 0.005416 -3.999998
v 4.000000 -0.002604 -3.999998
v 3.000002 0.006418 -3.749998
v 3.000114 0.572246 -3.753402
v 3.000002 0.004414 -3.999998
v 3.250116 0.569238 -4.003402
v 4.000114 0.563224 -4.003402
v 3.250114 0.566232 -4.003402
v 3.250114 0.564226 -4.003402
v 4.000114 0.571244 -2.753402
v 4.000114 0.572246 -2.753402
v 4.000002 -0.000598 -3.999998
v 4.000114 0.564226 -4.003402
v 4.000116 0.565230 -4.003402
v 3.250116 0.567234 -4.003402
v 3.250114 0.565230 -4.003402
v 4.000002 0.006418 -3.999998
v 4.000116 0.571244 -4.003402
v 4.000116 0.572246 -4.003402
v 3.750114 0.563224 -4.003402
v 4.000114 0.570242 -2.753402
v 4.000116 0.572246 -3.753402
v 4.000002 0.001406 -3.999998
v 4.000116 0.566232 -4.003402
v 4.000116 0.567234 -4.003402
v 3.000002 0.006418 -3.249998
v 3.000114 0.572246 -3.003402
v 4.000002 0.000404 -3.999998
v 4.000002 0.002410 -3.999998
v 4.000002 -0.001600 -3.999998
v 4.000002 0.005416 -3.999998
v 4.000002 0.003412 -3.999998
v 4.000116 0.568236 -4.003402
v 4.000114 0.571244 -3.003402
v 3.500114 0.572246 -2.753402
v 4.000116 0.572246 -3.253402
v 3.000116 0.570242 -4.003402
v 3.000116 0.572246 -4.003402
v 3.750114 0.572246 -2.753402
v 3.000116 0.569238 -4.003402
v 3.000114 0.572246 -2.753402
v 3.250114 0.562222 -4.003402
v 3.250114 0.563224 -4.003402
v 3.250116 0.568236 -4.003402
v 3.500114 0.563224 -4.003402
v 3.250096 0.951244 -3.252810
v 3.500096 0.951244 -3.002810
v 3.500096 0.951244 -3.252810
v 3.500096 0.951244 -3.502810
v 3.750096 0.951244 -3.252810
v 3.750096 0.951244 -3.502810
v 3.250096 0.951244 -3.752810
v 3.500096 0.951244 -3.752810
v 3.750096 0.951244 -3.752810
v 3.750096 0.951244 -3.002810
v 3.250096 0.467984 -4.002810
v 3.250096 0.466980 -4.002810
v 4.000096 0.469988 -4.002810
v 4.000094 0.472996 -2.752810
v 4.000096 0.470990 -4.002810
v 3.000096 0.471992 -4.002810
v 3.000096 0.470990 -4.002810
v 4.000096 0.465978 -4.002810
v 4.000096 0.472996 -3.002810
v 4.000096 0.473998 -4.002810
v 3.000096 0.473998 -3.502810
v 3.000096 0.472996 -4.002810
v 3.500096 0.473998 -2.752810
v 4.000096 0.473998 -3.752810
v 4.000096 0.473998 -3.502810
v 3.000096 0.473998 -4.002810
v 3.750094 0.473998 -2.752810
v 4.000096 0.467984 -4.002810
v 3.000094 0.473998 -3.002810
v 3.250096 0.464976 -4.002810
v 4.000096 0.473998 -3.002810
v 4.000096 0.473998 -3.252810
v 3.000094 0.473998 -2.752810
v 4.000096 0.471992 -4.002810
v 3.250096 0.465978 -4.002810
v 3.250096 0.470990 -4.002810
v 3.250096 0.469988 -4.002810
v 4.000096 0.468986 -4.002810
v 3.250094 0.473998 -2.752810
v 3.500094 0.464976 -4.002810
v 4.000094 0.464976 -4.002810
v 3.000096 0.473998 -3.252810
v 4.000096 0.472996 -4.002810
v 3.250096 0.468986 -4.002810
v 3.750094 0.464976 -4.002810
v 4.000096 0.466980 -4.002810
v 4.000094 0.473998 -2.752810
v 3.000096 0.473998 -3.752810
v 3.250096 0.473998 -3.002810
v 3.250096 0.473998 -3.252810
v 3.750096 0.473998 -3.002810
v 3.500096 0.473998 -3.002810
v 3.250096 0.951244 -3.002810
v 3.250096 0.473998 -3.502810
v 3.250096 0.473998 -3.752810
v 3.500096 0.473998 -4.002810
v 3.750096 0.473998 -4.002810
v 3.250096 0.473998 -4.002810
v 3.250096 0.951244 -3.502810
v 3.500096 0.473998 -3.752810
v 3.750096 0.473998 -3.502810
v 3.750096 0.473998 -3.752810
v 3.750096 0.473998 -3.252810
vt 0.1425 0.6473
vt 0.1205 0.6475
vt 0.1205 0.6475
vt 0.7473 0.7029
vt 0.7253 0.7125
vt 0.7253 0.7028
vt 0.7851 0.7028
vt 0.7630 0.6930
vt 0.7851 0.6930
vt 0.1425 0.6181
vt 0.1204 0.6085
vt 0.1425 0.6083
vt 0.7473 0.6834
vt 0.7253 0.6833
vt 0.7473 0.6834
vt 0.7473 0.6931
vt 0.7253 0.6930
vt 0.1814 0.3744
vt 0.1593 0.3646
vt 0.1814 0.3646
vt 0.7506 0.9195
vt 0.7506 0.9415
vt 0.7506 0.9195
vt 0.7506 0.9194
vt 0.7506 0.9415
vt 0.7506 0.9194
vt 0.1816 0.3451
vt 0.1595 0.3354
vt 0.1816 0.3354
vt 0.1425 0.5986
vt 0.1205 0.5987
vt 0.1204 0.5987
vt 0.1427 0.6473
vt 0.1207 0.6475
vt 0.1207 0.6475
vt 0.7506 0.9196
vt 0.7506 0.9416
vt 0.7506 0.9415
vt 0.1425 0.6473
vt 0.1205 0.6475
vt 0.1204 0.6475
vt 0.1816 0.3549
vt 0.1595 0.3451
vt 0.1204 0.6377
vt 0.1425 0.6376
vt 0.1427 0.6473
vt 0.1206 0.6475
vt 0.1206 0.6475
vt 0.7474 0.7126
vt 0.7253 0.7223
vt 0.1425 0.6083
vt 0.1425 0.5986
vt 0.1426 0.6473
vt 0.1206 0.6475
vt 0.2839 0.9211
vt 0.2839 0.9431
vt 0.2839 0.9210
vt 0.7851 0.7125
vt 0.7630 0.7028
vt 0.1425 0.6278
vt 0.1204 0.6182
vt 0.1427 0.6473
vt 0.7253 0.6833
vt 0.7474 0.6834
vt 0.7252 0.6833
vt 0.1425 0.6473
vt 0.1428 0.6473
vt 0.1208 0.6475
vt 0.7851 0.7223
vt 0.7630 0.7125
vt 0.1204 0.6280
vt 0.7254 0.6833
vt 0.7474 0.6834
vt 0.7474 0.7224
vt 0.7254 0.7320
vt 0.7506 0.9414
vt 0.7506 0.9194
vt 0.7506 0.9196
vt 0.7506 0.9416
vt 0.1816 0.3646
vt 0.1595 0.3549
vt 0.7630 0.6833
vt 0.7851 0.6833
vt 0.1426 0.6473
vt 0.5254 0.8205
vt 0.5352 0.8108
vt 0.5352 0.8205
vt 0.5352 0.8303
vt 0.5449 0.8205
vt 0.5449 0.8303
vt 0.5254 0.8400
vt 0.5352 0.8400
vt 0.5449 0.8400
vt 0.5449 0.8108
vt 0.9339 0.1946
vt 0.9339 0.1984
vt 0.9339 0.1984
vt 0.1046 0.9041
vt 0.1008 0.9041
vt 0.1047 0.9041
vt 0.1009 0.9041
vt 0.1047 0.9041
vt 0.6055 0.8743
vt 0.6092 0.8743
vt 0.6093 0.8743
vt 0.1045 0.9041
vt 0.1007 0.9041
vt 0.1045 0.9041
vt 0.9514 0.7160
vt 0.9476 0.7257
vt 0.9476 0.7160
vt 0.1048 0.9041
vt 0.1010 0.9041
vt 0.1048 0.9041
vt 0.6054 0.8451
vt 0.6092 0.8548
vt 0.6054 0.8548
vt 0.6054 0.8743
vt 0.6092 0.8743
vt 0.3170 0.6507
vt 0.3208 0.6605
vt 0.3170 0.6605
vt 0.1047 0.8846
vt 0.1009 0.8943
vt 0.1009 0.8846
vt 0.6053 0.8646
vt 0.6092 0.8743
vt 0.6053 0.8743
vt 0.3170 0.6410
vt 0.3208 0.6507
vt 0.1045 0.9041
vt 0.1008 0.9041
vt 0.1046 0.9041
vt 0.6054 0.8256
vt 0.6092 0.8353
vt 0.6054 0.8353
vt 0.4490 0.5604
vt 0.4490 0.5566
vt 0.4490 0.5604
vt 0.9559 0.4498
vt 0.9524 0.4512
vt 0.9523 0.4512
vt 0.1046 0.8748
vt 0.1008 0.8748
vt 0.3170 0.6702
vt 0.3208 0.6800
vt 0.3170 0.6800
vt 0.1009 0.9041
vt 0.1047 0.9041
vt 0.9339 0.1947
vt 0.9339 0.1985
vt 0.9339 0.1985
vt 0.9339 0.1945
vt 0.9339 0.1983
vt 0.9339 0.1983
vt 0.1008 0.9041
vt 0.3208 0.6702
vt 0.2467 0.7295
vt 0.2429 0.7197
vt 0.2467 0.7197
vt 0.6092 0.8450
vt 0.1010 0.9041
vt 0.9339 0.1946
vt 0.9339 0.1984
vt 0.6054 0.8743
vt 0.2467 0.7100
vt 0.2429 0.7002
vt 0.2467 0.7002
vt 0.1048 0.8943
vt 0.3050 0.9573
vt 0.3012 0.9476
vt 0.3050 0.9476
vt 0.9339 0.1945
vt 0.2429 0.7100
vt 0.1007 0.9041
vt 0.9339 0.1947
vt 0.1046 0.8651
vt 0.1008 0.8651
vt 0.9476 0.7160
vt 0.9514 0.7160
vt 0.6092 0.8645
vt 0.5684 0.4766
vt 0.5586 0.4864
vt 0.5586 0.4766
vt 0.3012 0.8774
vt 0.3198 0.8871
vt 0.3012 0.8871
vt 0.3198 0.8969
vt 0.3012 0.8969
vt 0.5684 0.4571
vt 0.5586 0.4669
vt 0.5586 0.4571
vt 0.9559 0.4603
vt 0.5489 0.4961
vt 0.5489 0.4864
vt 0.5684 0.4864
vt 0.5586 0.4961
vt 0.5391 0.4864
vt 0.5294 0.4961
vt 0.5294 0.4864
vt 0.5391 0.4961
vt 0.3198 0.8520
vt 0.3012 0.8423
vt 0.3198 0.8423
vt 0.5586 0.4474
vt 0.5489 0.4571
vt 0.5489 0.4474
vt 0.5684 0.4474
vt 0.5294 0.4571
vt 0.5391 0.4669
vt 0.5294 0.4669
vt 0.5294 0.4474
vt 0.5391 0.4571
vt 0.5391 0.4474
vt 0.5391 0.4766
vt 0.5294 0.4766
vt 0.8428 0.7575
vt 0.8614 0.7672
vt 0.8428 0.7672
vt 0.8967 0.4415
vt 0.8781 0.4317
vt 0.8967 0.4317
vt 0.3198 0.8618
vt 0.3012 0.8520
vt 0.5684 0.4669
vt 0.5254 0.8303
vt 0.3012 0.8325
vt 0.3198 0.8325
vt 0.8781 0.4220
vt 0.8967 0.4220
vt 0.8428 0.7477
vt 0.8614 0.7575
vt 0.8614 0.7770
vt 0.8428 0.7770
vt 0.1593 0.3744
vt 0.1205 0.6085
vt 0.2839 0.9431
vt 0.1428 0.6473
vt 0.7630 0.7223
vt 0.7474 0.7321
vt 0.7506 0.9417
vt 0.1595 0.3646
vt 0.5254 0.8108
vt 0.0265 0.9413
vt 0.0265 0.9412
vt 0.0265 0.9450
vt 0.1006 0.9041
vt 0.9514 0.7257
vt 0.3208 0.6410
vt 0.6092 0.8255
vt 0.9559 0.4498
vt 0.9339 0.1945
vt 0.2429 0.7295
vt 0.3012 0.9573
vt 0.3198 0.8774
vt 0.9559 0.4603
vt 0.5684 0.4961
vt 0.8781 0.4415
vt 0.3012 0.8618
vt 0.8614 0.7477
vn 0.9993 0.0000 0.0362
vn 0.9995 -0.0000 0.0311
vn 0.9995 -0.0000 0.0312
vn -1.0000 0.0002 0.0000
vn 0.0000 0.0060 1.0000
vn 1.0000 -0.0002 0.0000
vn -0.9992 0.0000 -0.0410
vn -0.9996 0.0000 -0.0283
vn -0.9996 -0.0000 -0.0280
vn 0.0018 -0.0042 -1.0000
vn 0.0000 -0.0060 -1.0000
vn 0.0000 -0.0029 -1.0000
vn -1.0000 0.0002 -0.0016
vn -0.9999 -0.0004 -0.0147
vn -1.0000 -0.0000 -0.0016
vn -0.9991 -0.0000 -0.0414
vn -0.9995 0.0000 -0.0311
vn -0.9995 -0.0000 -0.0329
vn -0.0299 -0.0782 -0.9965
vn -0.1112 0.0169 -0.9937
vn 0.9994 0.0000 0.0334
vn 0.9994 -0.0002 -0.0354
vn 0.9982 0.0004 -0.0596
vn 0.9985 0.0001 -0.0553
vn -1.0000 0.0003 0.0082
vn -1.0000 0.0002 0.0084
vn -0.9994 0.0000 -0.0351
vn -0.9995 0.0000 -0.0310
vn 0.9992 -0.0000 0.0411
vn 0.9995 -0.0000 0.0306
vn 0.9991 0.0000 0.0415
vn 0.9995 -0.0000 0.0310
vn 1.0000 -0.0009 -0.0001
vn 1.0000 0.0004 -0.0007
vn 0.9992 0.0000 0.0398
vn 0.9994 -0.0000 0.0345
vn -0.9995 0.0000 -0.0321
vn -0.9995 -0.0000 -0.0308
vn -0.9995 -0.0000 -0.0320
vn 0.9995 0.0000 0.0315
vn -0.9996 0.0000 -0.0281
vn -0.9994 -0.0000 -0.0346
vn 0.9995 0.0000 0.0307
vn 0.9993 0.0000 -0.0379
vn 0.9990 0.0000 -0.0448
vn -0.8806 -0.0006 -0.4738
vn -0.0036 -0.0041 -1.0000
vn -0.9994 0.0000 -0.0352
vn -0.9995 -0.0000 -0.0314
vn -0.9993 -0.0000 -0.0366
vn 0.9994 0.0000 0.0356
vn 0.0000 1.0000 0.0000
vn 0.9993 -0.0000 0.0363
vn 0.9994 -0.0000 0.0350
vn 0.9994 0.0000 0.0341
vn -0.9994 0.0000 -0.0339
vn -0.9994 -0.0000 -0.0345
vn -0.9993 0.0000 -0.0362
vn 0.9993 0.0000 0.0364
vn 0.9994 0.0001 0.0348
vn 0.9995 0.0000 0.0319
vn -0.9989 -0.0000 0.0477
vn -0.9968 0.0007 0.0797
vn -0.9965 0.0006 0.0834
vn -0.9993 0.0000 -0.0367
vn 0.9994 0.0001 0.0342
vn 0.9994 0.0001 0.0351
vn -0.9995 0.0000 -0.0331
vn -0.9994 -0.0000 -0.0349
vn -0.9989 0.0004 0.0469
vn -0.9688 -0.2460 -0.0302
vn -0.9987 0.0000 0.0503
vn 0.9995 0.0001 0.0317
vn 0.9995 0.0001 0.0318
vn 0.9995 0.0001 0.0310
vn 0.9995 -0.0000 0.0318
vn 0.9994 -0.0000 0.0355
vn 1.0000 -0.0002 -0.0063
vn 1.0000 -0.0004 -0.0061
vn 1.0000 -0.0007 -0.0058
vn 1.0000 -0.0001 -0.0064
vn 1.0000 -0.0000 -0.0063
vn -0.9989 0.0011 0.0476
vn -0.9963 0.0010 0.0858
vn 0.9994 -0.0000 0.0358
vn 0.9994 -0.0000 0.0349
vn -0.9995 -0.0001 -0.0320
vn -0.9995 0.0000 -0.0330
vn 0.0000 0.0000 1.0000
vn 1.0000 0.0000 0.0000
vn -1.0000 0.0000 0.0000
vn 0.0000 0.0000 -1.0000
vn -0.9995 0.0000 -0.0307
vn 0.9994 0.0000 0.0347
vn -1.0000 0.0000 0.0084
vn -0.9995 0.0000 -0.0301
vn -0.9994 0.0000 -0.0334
vn 0.9993 0.0000 0.0365
vn 0.9999 -0.0008 -0.0131
vn 0.9993 -0.0000 0.0370
vn -0.9970 0.0004 0.0774
vn -0.9995 -0.0000 -0.0315
vn 0.9995 -0.0000 0.0326
vn 0.9993 -0.0000 0.0369
vn 1.0000 -0.0000 -0.0067
vn -0.9995 -0.0001 -0.0314
usemtl Material.001
s 1
f 15/1/1 16/2/2 17/3/3
f 20/4/4 21/5/4 22/6/4
f 8/7/5 23/8/5 11/9/5
f 6/10/6 30/11/6 31/12/6
f 32/13/7 33/14/8 34/15/9
f 36/16/4 22/6/4 37/17/4
f 2/18/10 39/19/11 3/20/12
f 14/21/13 41/22/14 13/23/15
f 5/24/16 42/25/17 4/26/18
f 26/27/11 40/28/19 35/29/20
f 27/30/21 43/31/21 44/32/21
f 45/33/22 46/34/23 47/35/24
f 1/36/25 48/37/26 14/21/13
f 13/23/27 49/38/28 5/24/16
f 50/39/29 51/40/3 52/41/30
f 25/42/11 53/43/11 26/27/11
f 50/39/6 55/44/6 12/45/6
f 56/46/31 57/47/32 58/48/3
f 59/49/4 60/50/4 21/5/4
f 7/51/6 43/31/33 28/52/34
f 65/53/35 66/54/36 16/2/2
f 31/55/37 67/56/38 7/57/39
f 9/58/5 68/59/5 8/7/5
f 18/60/6 69/61/6 6/10/6
f 61/62/1 47/35/40 57/47/32
f 34/15/9 70/63/41 38/64/42
f 32/13/4 37/17/4 71/65/4
f 64/66/43 17/3/3 51/40/3
f 63/67/44 40/68/45 46/34/23
f 27/69/5 72/70/5 9/58/5
f 12/45/6 19/71/6 18/60/6
f 38/64/42 73/72/41 2/73/37
f 29/74/4 74/75/4 60/50/4
f 4/26/18 76/76/46 24/77/47
f 3/78/48 77/79/49 1/36/50
f 24/80/47 78/81/11 25/42/11
f 11/9/5 74/82/5 10/83/5
f 62/84/51 58/48/3 66/54/36
f 79/85/52 80/86/52 81/87/52
f 82/88/52 83/89/52 84/90/52
f 85/91/52 82/88/52 86/92/52
f 86/92/52 84/90/52 87/93/52
f 81/87/52 88/94/52 83/89/52
f 49/95/53 89/96/54 90/97/55
f 58/98/56 91/99/57 66/100/56
f 66/100/56 93/101/57 16/102/58
f 73/103/59 94/104/60 95/105/61
f 40/106/62 96/107/63 46/108/64
f 43/109/4 97/110/4 92/111/4
f 51/112/56 98/113/48 52/114/65
f 21/115/6 99/116/6 22/117/6
f 70/118/66 100/119/67 94/104/60
f 72/120/11 101/121/11 68/122/11
f 19/123/4 102/124/4 103/125/4
f 37/126/6 104/127/6 71/128/6
f 44/129/11 105/130/11 72/120/11
f 47/131/68 106/132/69 57/133/56
f 74/134/6 107/135/6 60/136/6
f 75/137/70 108/138/71 76/139/72
f 67/140/73 109/141/74 97/142/75
f 69/143/4 103/125/4 110/144/4
f 23/145/11 111/146/11 74/147/11
f 16/102/58 112/148/57 17/149/56
f 76/150/76 113/151/76 108/152/76
f 77/153/21 114/154/77 115/155/40
f 57/133/56 116/156/57 58/98/56
f 68/122/11 117/157/11 23/145/11
f 76/158/5 118/159/5 78/160/5
f 60/136/6 120/161/6 21/115/6
f 17/149/56 121/162/27 51/112/56
f 41/163/78 122/164/79 89/96/80
f 33/165/55 104/127/77 100/119/67
f 53/166/5 119/167/5 40/168/5
f 55/169/4 98/113/4 102/124/4
f 73/170/5 114/171/5 39/172/5
f 48/173/81 115/155/82 122/164/79
f 78/160/5 123/174/5 53/166/5
f 46/108/64 124/175/83 47/131/84
f 42/176/85 90/97/55 113/151/86
f 30/177/4 110/144/4 109/178/4
f 43/109/87 125/179/87 44/180/88
f 22/117/6 126/181/6 37/126/6
f 120/182/52 127/183/52 128/184/52
f 129/185/89 80/186/89 130/187/89
f 130/187/89 131/188/89 127/189/89
f 126/190/52 132/191/52 133/192/52
f 109/141/90 92/193/90 97/142/90
f 127/183/52 101/194/52 130/195/52
f 107/196/52 117/197/52 127/183/52
f 129/198/52 125/199/52 109/200/52
f 130/195/52 105/201/52 129/198/52
f 128/202/91 137/203/91 132/204/91
f 136/205/52 138/206/52 134/207/52
f 104/208/52 133/192/52 136/205/52
f 102/209/52 139/210/52 103/211/52
f 98/212/52 140/213/52 102/209/52
f 134/207/52 140/213/52 135/214/52
f 141/215/52 109/200/52 110/216/52
f 103/211/52 141/215/52 110/216/52
f 139/217/90 83/218/90 141/219/90
f 133/220/92 86/221/92 138/222/92
f 127/223/91 79/224/91 128/202/91
f 99/225/52 128/184/52 132/191/52
f 137/226/52 81/87/52 82/88/52
f 132/204/91 85/227/91 133/228/91
f 138/222/92 87/229/92 140/230/92
f 140/231/90 84/232/90 139/217/90
f 141/219/90 88/233/90 129/234/90
f 15/1/1 65/53/35 16/2/2
f 20/4/4 59/49/4 21/5/4
f 8/7/5 68/59/5 23/8/5
f 6/10/6 69/61/6 30/11/6
f 32/13/7 71/65/93 33/14/8
f 36/16/4 20/4/4 22/6/4
f 2/18/10 73/235/11 39/19/11
f 14/21/13 48/37/26 41/22/14
f 5/24/16 49/38/28 42/25/17
f 26/27/11 53/43/11 40/28/19
f 27/30/94 28/52/34 43/31/33
f 45/33/22 63/67/44 46/34/23
f 1/36/25 77/79/95 48/37/26
f 13/23/27 41/22/96 49/38/28
f 50/39/29 64/66/43 51/40/3
f 25/42/11 78/81/11 53/43/11
f 50/39/6 52/41/6 55/44/6
f 56/46/31 61/62/1 57/47/32
f 59/49/4 29/74/4 60/50/4
f 7/51/6 67/236/6 43/31/33
f 65/53/35 62/84/51 66/54/36
f 31/55/37 30/237/97 67/56/38
f 9/58/5 72/70/5 68/59/5
f 18/60/6 19/71/6 69/61/6
f 61/62/1 45/33/98 47/35/40
f 34/15/9 33/14/8 70/63/41
f 32/13/4 36/16/4 37/17/4
f 64/66/43 15/1/1 17/3/3
f 63/67/99 35/238/20 40/68/19
f 27/69/5 44/239/5 72/70/5
f 12/45/6 55/44/6 19/71/6
f 38/64/42 70/63/41 73/72/41
f 29/74/4 10/240/4 74/75/4
f 4/26/18 42/25/17 76/76/46
f 3/78/48 39/241/93 77/79/49
f 24/80/47 76/242/46 78/81/11
f 11/9/5 23/8/5 74/82/5
f 62/84/51 56/46/31 58/48/3
f 79/85/52 131/243/52 80/86/52
f 82/88/52 81/87/52 83/89/52
f 85/91/52 137/226/52 82/88/52
f 86/92/52 82/88/52 84/90/52
f 81/87/52 80/86/52 88/94/52
f 49/95/53 41/163/100 89/96/54
f 58/98/56 116/156/57 91/99/57
f 54/244/98 43/245/98 92/246/98
f 66/100/56 91/99/57 93/101/57
f 73/103/59 70/118/66 94/104/60
f 40/106/62 119/247/101 96/107/63
f 43/109/4 67/248/4 97/110/4
f 51/112/56 121/162/27 98/113/48
f 21/115/6 120/161/6 99/116/6
f 70/118/66 33/165/55 100/119/67
f 72/120/11 105/130/11 101/121/11
f 19/123/4 55/169/4 102/124/4
f 37/126/6 126/181/6 104/127/6
f 44/129/11 125/249/11 105/130/11
f 47/131/68 124/175/102 106/132/69
f 74/134/6 111/250/6 107/135/6
f 67/140/73 30/251/103 109/141/74
f 69/143/4 19/123/4 103/125/4
f 23/145/11 117/157/11 111/146/11
f 16/102/58 93/101/57 112/148/57
f 76/150/100 42/176/85 113/151/86
f 77/153/21 39/252/100 114/154/77
f 57/133/56 106/132/69 116/156/57
f 68/122/11 101/121/11 117/157/11
f 76/158/5 108/253/5 118/159/5
f 60/136/6 107/135/6 120/161/6
f 17/149/56 112/148/57 121/162/27
f 41/163/78 48/173/81 122/164/79
f 33/165/55 71/128/104 104/127/77
f 53/166/5 123/174/5 119/167/5
f 55/169/4 52/114/4 98/113/4
f 73/170/5 95/254/5 114/171/5
f 48/173/81 77/153/105 115/155/82
f 78/160/5 118/159/5 123/174/5
f 46/108/64 96/107/63 124/175/83
f 42/176/85 49/95/53 90/97/55
f 30/177/4 69/143/4 110/144/4
f 43/109/87 92/111/106 125/179/87
f 22/117/6 99/116/6 126/181/6
f 120/182/52 107/196/52 127/183/52
f 129/185/89 88/255/89 80/186/89
f 130/187/89 80/186/89 131/188/89
f 126/190/52 99/225/52 132/191/52
f 109/141/90 125/256/90 92/193/90
f 127/183/52 117/197/52 101/194/52
f 107/196/52 111/257/52 117/197/52
f 129/198/52 105/201/52 125/199/52
f 130/195/52 101/194/52 105/201/52
f 128/202/91 79/224/91 137/203/91
f 136/205/52 133/192/52 138/206/52
f 104/208/52 126/190/52 133/192/52
f 102/209/52 140/213/52 139/210/52
f 98/212/52 135/214/52 140/213/52
f 134/207/52 138/206/52 140/213/52
f 141/215/52 129/198/52 109/200/52
f 103/211/52 139/210/52 141/215/52
f 139/217/90 84/232/90 83/218/90
f 133/220/92 85/258/92 86/221/92
f 127/223/91 131/259/91 79/224/91
f 99/225/52 120/182/52 128/184/52
f 137/226/52 79/85/52 81/87/52
f 132/204/91 137/203/91 85/227/91
f 138/222/92 86/221/92 87/229/92
f 140/231/90 87/260/90 84/232/90
f 141/219/90 83/218/90 88/233/90
