# Blender v2.78 (sub 0) OBJ File: 'geA.obj'
# www.blender.org
mtllib geA.mtl
o Cube.002_Cube.000
v -2.750000 0.006418 -2.750000
v -2.591332 1.979562 -2.628224
v -2.500000 0.006418 -2.750000
v -2.500000 0.006418 -2.250000
v -2.591332 1.979562 -2.060888
v -2.500000 0.006418 -2.000000
v -2.591332 1.979562 -1.871776
v -2.500000 0.006418 -1.750000
v -3.000000 0.006418 -1.750000
v -3.158668 1.979562 -1.871776
v -3.250000 0.006418 -1.750000
v -2.750000 0.006418 -1.750000
v -2.969556 1.979562 -1.871776
v -3.000000 0.006418 -2.750000
v -3.158668 1.979562 -2.628224
v -2.969556 1.979562 -2.628224
v -2.500000 0.006418 -2.500000
v -2.591332 1.979562 -2.250000
v -3.158668 1.979562 -2.060888
v -3.250000 0.006418 -2.000000
v -2.780444 1.979562 -1.871776
v -3.250000 0.006418 -2.500000
v -3.250000 0.006418 -2.750000
v -3.250000 0.006418 -2.250000
v -3.158668 1.979562 -2.439112
v -2.780444 1.979562 -2.628224
v -2.969556 1.979562 -2.250000
v -2.780444 1.979562 -2.060888
v -2.780444 1.979562 -2.250000
v -2.780444 1.979562 -2.439112
v -2.969556 1.979562 -2.439112
v -3.158668 1.979562 -2.250000
v -2.969556 1.979562 -2.060888
v -2.591332 1.979562 -2.439112
vt 4.6287 5.4680
vt 5.0791 -4.4680
vt 5.3384 5.4680
vt -3.1782 -4.4680
vt -3.7151 5.4597
vt -3.8879 -4.4680
vt -4.2519 5.4597
vt -4.5976 -4.4680
vt 2.4995 5.4680
vt 2.9499 -4.4680
vt 3.2092 5.4680
vt 1.7898 5.4680
vt 2.4131 -4.4680
vt 3.9189 5.4680
vt 3.4685 -4.4680
vt 4.0054 -4.4680
vt -2.4685 -4.4680
vt -3.1782 5.4597
vt -1.7588 5.4597
vt -0.8762 -4.4680
vt -1.0491 5.4597
vt 1.3394 -4.4680
vt 1.8762 -4.4680
vt 0.3704 5.4597
vt 0.7344 -4.4680
vt 1.0801 5.4597
vt -0.3393 5.4597
vt 0.1975 -4.4680
vt 4.5422 -4.4680
vt 0.4174 0.7851
vt 0.4248 0.7777
vt 0.4248 0.7851
vt 0.4174 0.7998
vt 0.4248 0.7924
vt 0.4248 0.7998
vt 0.4100 0.7998
vt 0.4174 0.7924
vt 0.4100 0.7851
vt 0.4174 0.7777
vt 0.4100 0.7924
vt 0.4322 0.7998
vt 0.4322 0.7924
vt 0.4322 0.7703
vt 0.4322 0.7777
vt 0.4248 0.7703
vt 0.4100 0.7777
vt 0.4174 0.7703
vt 0.4322 0.7851
vt -0.3393 -4.4680
vt -1.7588 -4.4680
vt -2.6413 5.4597
vt 3.2092 5.4680
vt -1.4131 -4.4680
vt 1.0801 5.4680
vt 0.4100 0.7703
vt -2.1045 5.4597
vn 0.0000 0.0616 -0.9981
vn 0.9989 0.0462 0.0000
vn 0.0000 0.0616 0.9981
vn -0.9989 0.0462 0.0000
vn 0.0000 1.0000 0.0000
usemtl Material.001
s 1
f 1/1/1 2/2/1 3/3/1
f 4/4/2 5/5/2 6/6/2
f 6/6/2 7/7/2 8/8/2
f 9/9/3 10/10/3 11/11/3
f 12/12/3 13/13/3 9/9/3
f 14/14/1 15/15/1 16/16/1
f 17/17/2 18/18/2 4/4/2
f 11/19/4 19/20/4 20/21/4
f 12/12/3 7/22/3 21/23/3
f 22/24/4 15/25/4 23/26/4
f 24/27/4 25/28/4 22/24/4
f 14/14/1 26/29/1 1/1/1
f 27/30/5 28/31/5 29/32/5
f 16/33/5 30/34/5 26/35/5
f 15/36/5 31/37/5 16/33/5
f 32/38/5 33/39/5 27/30/5
f 25/40/5 27/30/5 31/37/5
f 2/41/5 30/34/5 34/42/5
f 28/31/5 7/43/5 5/44/5
f 33/39/5 21/45/5 28/31/5
f 19/46/5 13/47/5 33/39/5
f 18/48/5 28/31/5 5/44/5
f 34/42/5 29/32/5 18/48/5
f 31/37/5 29/32/5 30/34/5
f 20/21/4 32/49/4 24/27/4
f 3/50/2 34/51/2 17/17/2
f 1/1/1 26/29/1 2/2/1
f 4/4/2 18/18/2 5/5/2
f 6/6/2 5/5/2 7/7/2
f 9/9/3 13/13/3 10/10/3
f 12/12/3 21/23/3 13/13/3
f 14/14/1 23/52/1 15/15/1
f 17/17/2 34/51/2 18/18/2
f 11/19/4 10/53/4 19/20/4
f 12/12/3 8/54/3 7/22/3
f 22/24/4 25/28/4 15/25/4
f 24/27/4 32/49/4 25/28/4
f 14/14/1 16/16/1 26/29/1
f 27/30/5 33/39/5 28/31/5
f 16/33/5 31/37/5 30/34/5
f 15/36/5 25/40/5 31/37/5
f 32/38/5 19/46/5 33/39/5
f 25/40/5 32/38/5 27/30/5
f 2/41/5 26/35/5 30/34/5
f 28/31/5 21/45/5 7/43/5
f 33/39/5 13/47/5 21/45/5
f 19/46/5 10/55/5 13/47/5
f 18/48/5 29/32/5 28/31/5
f 34/42/5 30/34/5 29/32/5
f 31/37/5 27/30/5 29/32/5
f 20/21/4 19/20/4 32/49/4
f 3/50/2 2/56/2 34/51/2
