# Blender v2.78 (sub 0) OBJ File: 'geB.obj'
# www.blender.org
mtllib geB.mtl
o Cube.003
v -2.500000 0.006418 -3.500000
v -2.500000 1.157738 -3.375000
v -2.500000 0.006418 -3.250000
v -3.000000 0.006418 -3.250000
v -3.125000 1.157738 -3.250000
v -3.250000 0.006418 -3.250000
v -3.250000 0.006418 -3.750000
v -3.125000 1.157738 -3.750000
v -3.000000 0.006418 -3.750000
v -3.250000 1.157738 -3.375000
v -3.250000 0.006418 -3.500000
v -2.750000 0.006418 -3.250000
v -2.875000 1.157738 -3.250000
v -2.875000 1.157738 -3.750000
v -2.750000 0.006418 -3.750000
v -3.000000 1.157738 -3.625000
v -2.875000 1.787964 -3.625000
v -2.875000 1.157738 -3.625000
v -2.625000 1.157738 -3.625000
v -2.625000 1.787964 -3.500000
v -2.625000 1.157738 -3.500000
v -3.250000 1.157738 -3.625000
v -3.125000 1.157738 -3.500000
v -3.125000 1.157738 -3.625000
v -3.125000 1.157738 -3.375000
v -2.625000 1.157738 -3.375000
v -2.750000 1.157738 -3.250000
v -2.625000 1.157738 -3.250000
v -3.000000 1.157738 -3.375000
v -2.875000 1.157738 -3.375000
v -2.625000 1.157738 -3.750000
v -2.500000 0.006418 -3.750000
v -2.500000 1.157738 -3.625000
v -2.750000 1.157738 -3.375000
v -3.125000 1.787964 -3.500000
v -2.875000 1.787964 -3.375000
v -2.500000 1.157738 -3.250000
v -2.500000 1.157738 -3.500000
v -2.750000 1.157738 -3.625000
v -2.625000 1.787964 -3.625000
v -3.000000 1.157738 -3.250000
v -3.125000 1.787964 -3.625000
v -3.250000 1.157738 -3.500000
v -2.625000 1.787964 -3.375000
v -3.000000 1.157738 -3.750000
v -3.250000 1.157738 -3.750000
v -2.500000 1.157738 -3.750000
v -2.750000 1.157738 -3.750000
v -2.750000 1.787964 -3.625000
v -3.000000 1.787964 -3.625000
v -2.875000 1.787964 -3.500000
v -2.750000 1.787964 -3.500000
v -2.750000 1.787964 -3.375000
v -3.000000 1.787964 -3.500000
v -3.000000 1.787964 -3.375000
v -3.125000 1.787964 -3.375000
v -3.250000 1.157738 -3.250000
vt 0.9976 -0.5759
vt 0.7488 1.7157
vt 0.5000 -0.5759
vt -0.4952 -0.5759
vt -0.7440 1.7157
vt -0.9928 -0.5759
vt 2.9880 -0.5759
vt 2.7392 1.7157
vt 2.4904 -0.5759
vt -1.2416 1.7157
vt -1.4904 -0.5759
vt 0.0024 -0.5759
vt -0.2464 1.7157
vt 2.2416 1.7157
vt 1.9928 -0.5759
vt 2.5832 -0.6912
vt 2.2257 1.1114
vt 2.2257 -0.6912
vt 1.5106 -0.6912
vt 1.1531 1.1114
vt 1.1531 -0.6912
vt 0.2145 0.8098
vt 0.2096 0.8050
vt 0.2145 0.8050
vt 0.2047 0.8098
vt 0.1999 0.8050
vt 0.2047 0.8050
vt 0.2047 0.7855
vt 0.1999 0.7903
vt 0.1999 0.7855
vt 0.2047 0.8001
vt 0.1999 0.7952
vt 0.2047 0.7952
vt 1.7440 1.7157
vt 1.4952 -0.5759
vt -1.7392 1.7157
vt -1.9880 -0.5759
vt 0.2512 1.7157
vt 1.2464 1.7157
vt 0.2047 0.7903
vt -0.6346 -0.6912
vt -0.9921 1.1114
vt -0.9921 -0.6912
vt 0.4380 -0.6912
vt 0.0805 1.1114
vt 0.0805 -0.6912
vt 0.2047 0.7806
vt 0.1999 0.7806
vt 0.2096 0.7855
vt 0.2096 0.7806
vt 1.8681 -0.6912
vt 1.5106 1.1114
vt 0.1999 0.8001
vt -1.3497 1.1114
vt -1.3497 -0.6912
vt 0.2096 0.8098
vt 0.7955 1.1114
vt 0.7955 -0.6912
vt 0.2193 0.8050
vt 0.2145 0.8001
vt 0.2193 0.8001
vt 0.2193 0.8098
vt 0.2145 0.7855
vt 0.2145 0.7806
vt 0.2193 0.7855
vt 0.2193 0.7806
vt 0.2193 0.7903
vt 1.8681 1.1114
vt 0.2145 0.7952
vt 0.2145 0.7903
vt 0.2193 0.7952
vt 0.4073 0.7815
vt 0.4122 0.7864
vt 0.4073 0.7864
vt 0.4073 0.7961
vt 0.4122 0.7913
vt 0.4122 0.7961
vt 0.4171 0.7864
vt 0.4171 0.7913
vt 0.4122 0.7815
vt 0.4171 0.7961
vt 0.4122 0.7766
vt 0.4171 0.7815
vt 0.4073 0.7766
vt 0.4073 0.7913
vt -0.2771 1.1114
vt -0.2771 -0.6912
vt -0.6346 1.1114
vt 0.4380 1.1114
vt 2.9407 -0.6912
vt 2.5832 1.1114
vt 0.5000 1.7157
vt 0.9976 1.7157
vt -0.9928 1.7157
vt -0.4952 1.7157
vt 2.4904 1.7157
vt 2.9880 1.7157
vt -1.4904 1.7157
vt 0.0024 1.7157
vt 1.9928 1.7157
vt 0.1999 0.8098
vt 1.4952 1.7157
vt -1.9880 1.7157
vt 0.4171 0.7766
vt 2.9407 1.1114
vn 1.0000 0.0000 0.0000
vn 0.0000 0.0000 1.0000
vn 0.0000 0.0000 -1.0000
vn -1.0000 0.0000 0.0000
vn 0.0000 1.0000 0.0000
usemtl Material.001
s 1
f 1/1/1 2/2/1 3/3/1
f 4/4/2 5/5/2 6/6/2
f 7/7/3 8/8/3 9/9/3
f 6/6/4 10/10/4 11/11/4
f 12/12/2 13/13/2 4/4/2
f 9/9/3 14/14/3 15/15/3
f 16/16/3 17/17/3 18/18/3
f 19/19/1 20/20/1 21/21/1
f 22/22/5 23/23/5 24/24/5
f 10/25/5 5/26/5 25/27/5
f 26/28/5 27/29/5 28/30/5
f 29/31/5 13/32/5 30/33/5
f 15/15/3 31/34/3 32/35/3
f 11/11/4 22/36/4 7/37/4
f 3/3/2 28/38/2 12/12/2
f 32/35/1 33/39/1 1/1/1
f 30/33/5 27/29/5 34/40/5
f 25/41/4 35/42/4 23/43/4
f 34/44/2 36/45/2 30/46/2
f 2/47/5 28/30/5 37/48/5
f 21/49/5 2/47/5 38/50/5
f 39/51/3 40/52/3 19/19/3
f 25/27/5 41/53/5 29/31/5
f 23/43/4 42/54/4 24/55/4
f 43/56/5 25/27/5 23/23/5
f 21/21/1 44/57/1 26/58/1
f 8/59/5 16/60/5 45/61/5
f 46/62/5 24/24/5 8/59/5
f 19/63/5 38/50/5 33/64/5
f 31/65/5 33/64/5 47/66/5
f 48/67/5 19/63/5 31/65/5
f 18/18/3 49/68/3 39/51/3
f 48/67/5 18/69/5 39/70/5
f 14/71/5 16/60/5 18/69/5
f 50/72/5 51/73/5 17/74/5
f 40/75/5 52/76/5 20/77/5
f 52/76/5 36/78/5 53/79/5
f 54/80/5 36/78/5 51/73/5
f 20/77/5 53/79/5 44/81/5
f 35/82/5 55/83/5 54/80/5
f 42/84/5 54/80/5 50/72/5
f 49/85/5 51/73/5 52/76/5
f 30/46/2 55/86/2 29/87/2
f 29/87/2 56/88/2 25/41/2
f 26/58/2 53/89/2 34/44/2
f 24/90/3 50/91/3 16/16/3
f 37/92/1 3/3/1 2/2/1
f 1/1/1 38/93/1 2/2/1
f 57/94/2 6/6/2 5/5/2
f 4/4/2 41/95/2 5/5/2
f 45/96/3 9/9/3 8/8/3
f 7/7/3 46/97/3 8/8/3
f 43/98/4 11/11/4 10/10/4
f 6/6/4 57/94/4 10/10/4
f 41/95/2 4/4/2 13/13/2
f 12/12/2 27/99/2 13/13/2
f 48/100/3 15/15/3 14/14/3
f 9/9/3 45/96/3 14/14/3
f 16/16/3 50/91/3 17/17/3
f 19/19/1 40/52/1 20/20/1
f 22/22/5 43/56/5 23/23/5
f 10/25/5 57/101/5 5/26/5
f 26/28/5 34/40/5 27/29/5
f 29/31/5 41/53/5 13/32/5
f 47/102/3 32/35/3 31/34/3
f 15/15/3 48/100/3 31/34/3
f 46/103/4 7/37/4 22/36/4
f 11/11/4 43/98/4 22/36/4
f 27/99/2 12/12/2 28/38/2
f 3/3/2 37/92/2 28/38/2
f 38/93/1 1/1/1 33/39/1
f 32/35/1 47/102/1 33/39/1
f 30/33/5 13/32/5 27/29/5
f 25/41/4 56/88/4 35/42/4
f 34/44/2 53/89/2 36/45/2
f 2/47/5 26/28/5 28/30/5
f 21/49/5 26/28/5 2/47/5
f 39/51/3 49/68/3 40/52/3
f 25/27/5 5/26/5 41/53/5
f 23/43/4 35/42/4 42/54/4
f 43/56/5 10/25/5 25/27/5
f 21/21/1 20/20/1 44/57/1
f 8/59/5 24/24/5 16/60/5
f 46/62/5 22/22/5 24/24/5
f 19/63/5 21/49/5 38/50/5
f 31/65/5 19/63/5 33/64/5
f 48/67/5 39/70/5 19/63/5
f 18/18/3 17/17/3 49/68/3
f 48/67/5 14/71/5 18/69/5
f 14/71/5 45/61/5 16/60/5
f 50/72/5 54/80/5 51/73/5
f 40/75/5 49/85/5 52/76/5
f 52/76/5 51/73/5 36/78/5
f 54/80/5 55/83/5 36/78/5
f 20/77/5 52/76/5 53/79/5
f 35/82/5 56/104/5 55/83/5
f 42/84/5 35/82/5 54/80/5
f 49/85/5 17/74/5 51/73/5
f 30/46/2 36/45/2 55/86/2
f 29/87/2 55/86/2 56/88/2
f 26/58/2 44/57/2 53/89/2
f 24/90/3 42/105/3 50/91/3
