# Blender v2.78 (sub 0) OBJ File: 'geD.obj'
# www.blender.org
mtllib geD.mtl
o Cube.005
v -3.501144 1.607567 3.217036
v -3.406746 1.932279 3.217036
v -3.406746 1.607567 3.217036
v -3.784336 1.607567 3.217036
v -3.689938 1.932279 3.217036
v -3.689938 1.607567 3.217036
v -3.312348 1.932279 3.217036
v -3.312348 1.607567 3.217036
v -3.784336 1.607567 3.311432
v -3.784336 1.932279 3.217036
v -3.217952 1.607567 3.783420
v -3.312348 1.932279 3.783420
v -3.312348 1.607567 3.783420
v -3.217952 1.607567 3.311432
v -3.217952 1.932279 3.405830
v -3.217952 1.607567 3.405830
v -3.689938 1.607567 3.783420
v -3.784336 1.932279 3.783420
v -3.784336 1.607567 3.783420
v -3.217952 1.607567 3.689022
v -3.217952 1.932279 3.783420
v -3.217952 1.932279 3.500228
v -3.217952 1.607567 3.500228
v -3.595542 1.607567 3.783420
v -3.689938 1.932279 3.783420
v -3.784336 1.932279 3.689022
v -3.784336 1.607567 3.689022
v -3.595540 1.932279 3.217036
v -3.595540 1.607567 3.217036
v -3.784336 1.607567 3.594624
v -3.784336 1.932279 3.500228
v -3.784336 1.607567 3.500228
v -3.217952 1.932279 3.217036
v -3.217952 1.607567 3.217036
v -3.501144 1.607567 3.783420
v -3.595542 1.932279 3.783420
v -3.406746 1.607567 3.783420
v -3.501144 1.932279 3.783420
v -3.501144 1.932279 3.217036
v -3.217952 1.932279 3.594624
v -3.217952 1.607567 3.594624
v -3.784336 1.932279 3.594624
v -3.784336 1.607567 3.405830
v -3.784336 1.932279 3.311432
v -3.217952 1.932279 3.311432
v -3.406746 1.932279 3.783420
v -3.217952 1.932279 3.689022
v -3.784336 1.932279 3.405830
vt 0.9957 0.2856
vt 0.8304 0.8540
vt 0.8304 0.2856
vt 1.4913 0.2856
vt 1.3261 0.8540
vt 1.3261 0.2856
vt 0.6652 0.8540
vt 0.6652 0.2856
vt 1.6565 0.2856
vt 1.4913 0.8540
vt -0.4913 0.2856
vt -0.6566 0.8540
vt -0.6566 0.2856
vt 0.3348 0.2856
vt 0.1696 0.8540
vt 0.1696 0.2856
vt -1.3174 0.2856
vt -1.4827 0.8540
vt -1.4827 0.2856
vt -0.3261 0.2856
vt -0.4913 0.8540
vt 0.0043 0.8540
vt 0.0043 0.2856
vt -1.1522 0.2856
vt -1.3174 0.8540
vt 2.4827 0.2856
vt 2.3174 0.8540
vt 2.3174 0.2856
vt 1.1609 0.8540
vt 1.1609 0.2856
vt 2.1522 0.2856
vt 1.9870 0.8540
vt 1.9870 0.2856
vt 0.5000 0.8540
vt 0.5000 0.2856
vt -0.9870 0.2856
vt -1.1522 0.8540
vt -0.8218 0.2856
vt -0.9870 0.8540
vt 0.9957 0.8540
vt -0.1609 0.8540
vt -0.1609 0.2856
vt 2.1522 0.8540
vt 1.8218 0.2856
vt 1.6565 0.8540
vt 0.3348 0.8540
vt -0.8218 0.8540
vt -0.3261 0.8540
vt 1.8218 0.8540
vt 2.4827 0.8540
vn 0.0000 0.0000 -1.0000
vn -1.0000 0.0000 0.0000
vn 0.0000 0.0000 1.0000
vn 1.0000 0.0000 0.0000
usemtl Material.001
s 1
f 1/1/1 2/2/1 3/3/1
f 4/4/1 5/5/1 6/6/1
f 3/3/1 7/7/1 8/8/1
f 9/9/2 10/10/2 4/4/2
f 11/11/3 12/12/3 13/13/3
f 14/14/4 15/15/4 16/16/4
f 17/17/3 18/18/3 19/19/3
f 20/20/4 21/21/4 11/11/4
f 16/16/4 22/22/4 23/23/4
f 24/24/3 25/25/3 17/17/3
f 19/26/2 26/27/2 27/28/2
f 6/6/1 28/29/1 29/30/1
f 30/31/2 31/32/2 32/33/2
f 8/8/1 33/34/1 34/35/1
f 35/36/3 36/37/3 24/24/3
f 37/38/3 38/39/3 35/36/3
f 29/30/1 39/40/1 1/1/1
f 23/23/4 40/41/4 41/42/4
f 27/28/2 42/43/2 30/31/2
f 43/44/2 44/45/2 9/9/2
f 34/35/4 45/46/4 14/14/4
f 13/13/3 46/47/3 37/38/3
f 41/42/4 47/48/4 20/20/4
f 32/33/2 48/49/2 43/44/2
f 1/1/1 39/40/1 2/2/1
f 4/4/1 10/10/1 5/5/1
f 3/3/1 2/2/1 7/7/1
f 9/9/2 44/45/2 10/10/2
f 11/11/3 21/21/3 12/12/3
f 14/14/4 45/46/4 15/15/4
f 17/17/3 25/25/3 18/18/3
f 20/20/4 47/48/4 21/21/4
f 16/16/4 15/15/4 22/22/4
f 24/24/3 36/37/3 25/25/3
f 19/26/2 18/50/2 26/27/2
f 6/6/1 5/5/1 28/29/1
f 30/31/2 42/43/2 31/32/2
f 8/8/1 7/7/1 33/34/1
f 35/36/3 38/39/3 36/37/3
f 37/38/3 46/47/3 38/39/3
f 29/30/1 28/29/1 39/40/1
f 23/23/4 22/22/4 40/41/4
f 27/28/2 26/27/2 42/43/2
f 43/44/2 48/49/2 44/45/2
f 34/35/4 33/34/4 45/46/4
f 13/13/3 12/12/3 46/47/3
f 41/42/4 40/41/4 47/48/4
f 32/33/2 31/32/2 48/49/2
