# Blender v2.78 (sub 0) OBJ File: 'city.obj'
# www.blender.org
mtllib oficinas.mtl
o oficinas_Cube.044
v 0.190738 0.945181 3.440740
v -0.190742 0.945181 3.059260
v -0.000002 0.945181 3.440740
v 0.190738 0.945181 3.059260
v 0.190738 0.945181 3.250000
v -0.000002 1.194417 3.059260
v -0.000002 0.945181 3.059260
v -0.190742 1.194417 3.440740
v -0.190742 0.945181 3.440740
v 0.190738 1.194417 3.059260
v 0.190738 1.194417 3.440740
v -0.190742 0.945181 3.250000
v -0.000002 1.194417 3.440740
v 0.190738 1.194417 3.250000
v -0.190742 1.194417 3.250000
v -0.190742 1.194417 3.059260
v 0.249998 0.006417 3.000000
v -0.250002 0.006417 3.000000
v -0.250002 0.006417 3.250000
v -0.250002 0.006417 3.500000
v -0.250002 0.700339 3.250000
v 0.249998 0.006417 3.500000
v 0.249998 0.006417 3.250000
v 0.249998 0.700339 3.500000
v -0.000002 0.006417 3.500000
v -0.250002 0.700339 3.500000
v -0.000002 0.006417 3.000000
v 0.249998 0.700339 3.000000
v 0.249998 0.700339 3.250000
v -0.250002 0.700339 3.000000
v -0.000002 0.700339 3.500000
v -0.000002 0.700339 3.000000
v -1.750002 0.006417 2.000000
v -1.750002 0.006417 1.750000
v -1.500002 0.006417 1.750000
v -1.375002 0.475879 1.750000
v -1.250002 0.006417 1.750000
v -1.750002 0.006417 2.500000
v -1.750002 0.006417 2.250000
v -1.250002 0.006417 2.000000
v -1.250002 0.475879 2.125000
v -1.250002 0.006417 2.250000
v -1.625002 0.475879 1.750000
v -1.250002 0.006417 2.500000
v -1.375002 0.475879 2.500000
v -1.500002 0.006417 2.500000
v -1.625002 0.475879 2.500000
v -1.750002 0.475879 2.125000
v -1.375002 0.475879 2.375000
v -1.500002 0.475879 2.500000
v -1.625002 0.475879 2.000000
v -1.625002 0.399505 1.875000
v -1.625002 0.475879 1.875000
v -1.750002 0.475879 2.375000
v -1.625002 0.475879 2.375000
v -1.625002 0.475879 2.250000
v -1.625002 0.475879 2.125000
v -1.625002 0.399505 2.250000
v -1.750002 0.475879 1.875000
v -1.250002 0.475879 1.875000
v -1.250002 0.475879 2.375000
v -1.500002 0.399505 2.375000
v -1.500002 0.475879 2.375000
v -1.500002 0.475879 1.750000
v -1.500002 0.475879 1.875000
v -1.375002 0.475879 2.125000
v -1.250002 0.475879 2.250000
v -1.375002 0.475879 2.000000
v -1.250002 0.475879 2.000000
v -1.375002 0.475879 1.875000
v -1.375002 0.399505 2.000000
v -1.625002 0.399505 2.000000
v -1.500002 0.399505 1.875000
v -1.750002 0.475879 2.000000
v -1.375002 0.399505 1.875000
v -1.750002 0.475879 2.250000
v -1.250002 0.475879 1.750000
v -1.250002 0.475879 2.500000
v -1.375002 0.475879 2.250000
v -1.375002 0.399505 2.125000
v -1.500002 0.399505 2.000000
v -1.500002 0.399505 2.250000
v -1.375002 0.399505 2.250000
v -1.500002 0.399505 2.125000
v -1.625002 0.399505 2.125000
v -1.625002 0.399505 2.375000
v -1.375002 0.399505 2.375000
v -1.750002 0.475879 1.750000
v -1.750002 0.475879 2.500000
v 0.250000 0.006417 0.000000
v -0.750000 0.006417 0.750000
v -0.750000 0.006417 0.000000
v -0.250000 0.006417 0.000000
v -0.500000 0.905585 0.000000
v -0.500000 0.006417 0.000000
v -0.500000 0.006417 0.750000
v -0.250000 0.006417 0.750000
v -0.250000 0.905585 0.000000
v -0.750000 0.006417 0.500000
v -0.750000 0.006417 0.250000
v -0.500000 0.905585 0.750000
v 0.000000 0.905585 0.000000
v 0.000000 0.006417 0.000000
v 0.250000 0.905585 0.250000
v 0.250000 0.006417 0.250000
v 0.000000 0.006417 0.750000
v -0.250000 0.905585 0.750000
v 0.250000 0.006417 0.500000
v 0.000000 0.905585 0.500000
v 0.000000 0.006417 0.500000
v 0.250000 0.905585 0.500000
v 0.250000 0.905585 0.000000
v -0.750000 0.905585 0.750000
v -0.750000 0.905585 0.000000
v 0.000000 0.905585 0.250000
v -0.500000 0.905585 0.250000
v -0.250000 0.905585 0.500000
v -0.250000 0.905585 0.250000
v -0.750000 0.905585 0.250000
v -0.500000 0.905585 0.500000
v 0.000000 0.905585 0.750000
v -0.750000 0.905585 0.500000
v -1.500000 0.006418 -1.250000
v -1.250000 1.097021 -1.250000
v -1.250000 0.006418 -1.250000
v -2.000000 0.006417 -1.000000
v -2.000000 1.097021 -1.250000
v -2.000000 0.006418 -1.250000
v -1.750000 1.097021 -1.250000
v -1.750000 0.006418 -1.250000
v -2.000000 0.006417 -0.500000
v -2.000000 1.097021 -0.750000
v -2.000000 0.006417 -0.750000
v -1.250000 0.006417 -0.750000
v -1.250000 1.097021 -0.500000
v -1.250000 0.006417 -0.500000
v -1.500000 0.006417 -0.500000
v -1.750000 1.097021 -0.500000
v -1.750000 0.006417 -0.500000
v -1.500000 1.097021 -0.500000
v -1.500000 1.097021 -1.250000
v -2.000000 1.097021 -1.000000
v -1.500000 1.049955 -0.500000
v -1.250000 1.049955 -1.250000
v -1.750000 1.049955 -1.250000
v -1.250000 1.097021 -0.750000
v -1.250000 1.049955 -0.500000
v -1.250000 1.049955 -1.000000
v -1.250000 1.097021 -1.000000
v -1.750000 1.049955 -0.500000
v -1.500000 1.049955 -1.250000
v -2.000000 1.097021 -0.500000
v -2.000000 1.049955 -0.750000
v -2.000000 1.049955 -0.500000
v -1.250000 0.006417 -1.000000
v -2.000000 1.049955 -1.250000
v -1.750000 1.049955 -1.000000
v -1.500000 1.049955 -1.000000
v -1.500000 1.049955 -0.750000
v -1.250000 1.049955 -0.750000
v -1.750000 1.049955 -0.750000
v -2.000000 1.049955 -1.000000
vt -0.3213 0.4968
vt 0.1880 -0.1687
vt 0.1880 0.4968
vt 2.2251 0.4968
vt 2.7344 -0.1687
vt 2.7344 0.4968
vt 0.6973 -0.1687
vt 0.6973 0.4968
vt 1.2066 0.4968
vt 1.7158 -0.1687
vt 1.7158 0.4968
vt -1.3398 0.4968
vt -0.8306 -0.1687
vt -0.8306 0.4968
vt 1.2066 -0.1687
vt 2.2251 -0.1687
vt -0.3213 -0.1687
vt -1.3398 -0.1687
vt 1.8033 -0.0655
vt 1.3959 1.0655
vt 1.3959 -0.0655
vt -0.2339 -0.0655
vt -0.6414 1.0655
vt -0.6414 -0.0655
vt -1.0488 -0.0655
vt -1.4563 1.0655
vt -1.4563 -0.0655
vt 0.5810 -0.0655
vt 0.1735 1.0655
vt 0.1735 -0.0655
vt 0.9884 -0.0655
vt 0.5810 1.0655
vt -0.2339 1.0655
vt 0.9884 1.0655
vt -1.0488 1.0655
vt 1.8033 1.0655
vt -0.3462 0.9965
vt -0.0944 0.0035
vt 0.1574 0.9965
vt 0.6610 0.9965
vt 0.9128 0.0035
vt 1.1646 0.9965
vt -0.8498 0.9965
vt -0.5980 0.0035
vt 1.6683 0.9965
vt 1.9201 0.0035
vt 2.1719 0.9965
vt 2.4237 0.0035
vt 2.6755 0.9965
vt -1.8570 0.9965
vt -1.6052 0.0035
vt -1.3534 0.9965
vt 0.5694 0.1379
vt 0.5703 0.1394
vt 0.5691 0.1390
vt 0.2234 0.2952
vt 0.2228 0.2949
vt 0.2230 0.2944
vt 0.5736 0.1381
vt 0.5718 0.1398
vt 0.5719 0.1381
vt 0.5730 0.1353
vt 0.5721 0.1368
vt 0.5719 0.1357
vt 0.2236 0.2982
vt 0.2233 0.2969
vt 0.2238 0.2970
vt 0.5720 0.1335
vt 0.5716 0.1347
vt 0.5711 0.1339
vt 0.4092 0.0035
vt -1.1016 0.0035
vt -2.3606 0.9965
vt -2.1088 0.0035
vt 1.4164 0.0035
vt 0.2214 0.2980
vt 0.2225 0.2977
vt 0.2224 0.2983
vt 0.5700 0.1332
vt 0.5702 0.1339
vt 0.5708 0.1330
vt 0.5691 0.1360
vt 0.5682 0.1369
vt 0.5681 0.1359
vt 0.5691 0.1351
vt 0.5683 0.1350
vt 0.2214 0.2948
vt 0.2217 0.2956
vt 0.2212 0.2955
vt 0.2237 0.2960
vt 0.2230 0.2954
vt 0.2222 0.2949
vt 0.2222 0.2945
vt 0.5725 0.1343
vt 0.5705 0.1382
vt 0.2218 0.2950
vt 0.5734 0.1366
vt 0.5693 0.1342
vt 0.5684 0.1342
vt 0.5693 0.1333
vt 0.5686 0.1335
vt 0.5684 0.1387
vt 0.5683 0.1379
vt 0.5691 0.1369
vt 0.2217 0.2963
vt 0.2212 0.2963
vt 0.5172 0.8251
vt 0.5501 0.7922
vt 0.5501 0.8251
vt 0.5830 0.8251
vt 0.6160 0.7922
vt 0.6160 0.8251
vt 0.5172 0.7922
vt 0.5501 0.7593
vt 0.5830 0.7922
vt 0.6160 0.7593
vt 0.5830 0.7593
vt 0.6489 0.7593
vt 0.6489 0.7922
vt 0.6489 0.8251
vt 0.2231 0.2977
vt 0.2212 0.2971
vt 0.2218 0.2976
vt 0.2217 0.2970
vt 0.2232 0.2961
vt 0.1574 0.0035
vt -0.3462 0.0035
vt 1.1646 0.0035
vt 0.6610 0.0035
vt -0.8498 0.0035
vt 2.1719 0.0035
vt 1.6683 0.0035
vt 2.6755 0.0035
vt -1.3534 0.0035
vt -1.8570 0.0035
vt 0.5737 0.1401
vt -2.3606 0.0035
vt 0.5715 0.1328
vt 0.5172 0.7593
vt -1.6564 1.0380
vt -1.1588 -0.7517
vt -1.1588 1.0380
vt -0.6612 -0.7517
vt -0.6612 1.0380
vt 2.8219 1.0380
vt 3.3195 -0.7517
vt 3.3195 1.0380
vt -0.1637 -0.7517
vt -0.1637 1.0380
vt 0.3339 1.0380
vt 0.8315 -0.7517
vt 0.8315 1.0380
vt 2.3243 1.0380
vt 2.8219 -0.7517
vt 1.3291 1.0380
vt 1.8267 -0.7517
vt 1.8267 1.0380
vt 1.3291 -0.7517
vt 0.3339 -0.7517
vt 3.8171 -0.7517
vt 3.8171 1.0380
vt -2.1540 1.0380
vt -1.6564 -0.7517
vt 0.5499 0.1380
vt 0.5487 0.1368
vt 0.5496 0.1367
vt 0.5514 0.1411
vt 0.5486 0.1402
vt 0.5505 0.1395
vt 0.5528 0.1426
vt 0.5495 0.1424
vt 0.5535 0.1412
vt 0.5528 0.1400
vt 0.5481 0.1382
vt 0.5520 0.1387
vt 0.5512 0.1374
vt 0.5467 0.1388
vt 0.5467 0.1435
vt 0.5465 0.1406
vt 0.5506 0.1365
vt 0.5511 0.1448
vt 2.3243 -0.7517
vt -2.6516 1.0380
vt -2.1540 -0.7517
vt -3.1492 1.0380
vt -2.6516 -0.7517
vt 0.5479 0.1476
vt -3.1492 -0.7517
vt 0.7021 -0.6349
vt 0.1818 1.6349
vt 0.1818 -0.6349
vt 2.2630 -0.6349
vt 1.7427 1.6349
vt 1.7427 -0.6349
vt 1.2224 1.6349
vt 1.2224 -0.6349
vt 3.3035 -0.6349
vt 2.7832 1.6349
vt 2.7832 -0.6349
vt -0.8588 -0.6349
vt -1.3791 1.6349
vt -1.3791 -0.6349
vt -1.8993 -0.6349
vt -2.4196 1.6349
vt -2.4196 -0.6349
vt -1.8993 1.6349
vt 0.7021 1.6349
vt 2.2630 1.6349
vt 0.4191 0.1803
vt 0.4170 0.1482
vt 0.4244 0.1476
vt 0.3397 0.2096
vt 0.3585 0.2124
vt 0.3588 0.2161
vt 0.2958 0.1821
vt 0.3192 0.1925
vt 0.3166 0.1967
vt 0.4001 0.1951
vt 0.4146 0.1782
vt 0.3758 0.2043
vt 0.3778 0.2080
vt 0.4024 0.0959
vt 0.4150 0.0897
vt 0.3418 0.2052
vt 0.3586 0.0002
vt 0.3103 0.0966
vt 0.2983 0.0911
vt 0.3601 0.0344
vt -2.9399 1.6349
vt -2.9399 -0.6349
vt -0.3385 -0.6349
vt -0.8588 1.6349
vt -0.3385 1.6349
vt 0.5504 0.1170
vt 0.5520 0.1162
vt 0.5513 0.1176
vt 0.5532 0.1185
vt 0.5532 0.1172
vt 0.5541 0.1182
vt 0.5543 0.1162
vt 0.5559 0.1169
vt 0.5551 0.1175
vt 0.5509 0.1130
vt 0.5553 0.1130
vt 0.5532 0.1146
vt 0.5560 0.1155
vt 0.5503 0.1155
vt 0.5524 0.1182
vt 0.2892 0.1493
vt 0.3002 0.1793
vt 0.3972 0.1908
vt 0.2979 0.1496
vt 3.3035 1.6349
vt 0.5533 0.1100
vn 0.0000 0.0000 -1.0000
vn 0.0000 0.0000 1.0000
vn 1.0000 0.0000 0.0000
vn -1.0000 0.0000 0.0000
vn 0.0000 1.0000 0.0000
usemtl Material.001
s 1
f 2/1/1 6/2/1 7/3/1
f 3/4/2 8/5/2 9/6/2
f 7/3/1 10/7/1 4/8/1
f 5/9/3 11/10/3 1/11/3
f 9/12/4 15/13/4 12/14/4
f 4/8/3 14/15/3 5/9/3
f 1/11/2 13/16/2 3/4/2
f 12/14/4 16/17/4 2/1/4
f 2/1/1 16/17/1 6/2/1
f 3/4/2 13/16/2 8/5/2
f 7/3/1 6/2/1 10/7/1
f 5/9/3 14/15/3 11/10/3
f 9/12/4 8/18/4 15/13/4
f 4/8/3 10/7/3 14/15/3
f 1/11/2 11/10/2 13/16/2
f 12/14/4 15/13/4 16/17/4
f 20/19/4 21/20/4 19/21/4
f 23/22/3 24/23/3 22/24/3
f 25/25/2 26/26/2 20/27/2
f 27/28/1 28/29/1 17/30/1
f 18/31/1 32/32/1 27/28/1
f 17/30/3 29/33/3 23/22/3
f 19/21/4 30/34/4 18/31/4
f 22/24/2 31/35/2 25/25/2
f 20/19/4 26/36/4 21/20/4
f 23/22/3 29/33/3 24/23/3
f 25/25/2 31/35/2 26/26/2
f 27/28/1 32/32/1 28/29/1
f 18/31/1 30/34/1 32/32/1
f 17/30/3 28/29/3 29/33/3
f 19/21/4 21/20/4 30/34/4
f 22/24/2 24/23/2 31/35/2
f 35/37/1 36/38/1 37/39/1
f 40/40/3 41/41/3 42/42/3
f 34/43/1 43/44/1 35/37/1
f 44/45/2 45/46/2 46/47/2
f 46/47/2 47/48/2 38/49/2
f 39/50/4 48/51/4 33/52/4
f 49/53/5 50/54/5 45/55/5
f 51/56/3 52/57/3 53/58/3
f 54/59/5 47/60/5 55/61/5
f 48/62/5 56/63/5 57/64/5
f 55/65/3 58/66/3 56/67/3
f 59/68/5 51/69/5 53/70/5
f 37/39/3 60/71/3 40/40/3
f 33/52/4 59/72/4 34/43/4
f 38/73/4 54/74/4 39/50/4
f 42/42/3 61/75/3 44/45/3
f 49/76/1 62/77/1 63/78/1
f 64/79/5 53/70/5 65/80/5
f 43/81/5 59/68/5 53/70/5
f 66/82/5 67/83/5 41/84/5
f 68/85/5 41/84/5 69/86/5
f 70/87/4 71/88/4 68/89/4
f 57/90/3 72/91/3 51/56/3
f 53/58/2 73/92/2 65/93/2
f 74/94/5 57/64/5 51/69/5
f 63/95/5 47/60/5 50/54/5
f 65/93/2 75/96/2 70/87/2
f 76/97/5 55/61/5 56/63/5
f 70/98/5 69/86/5 60/99/5
f 36/100/5 60/99/5 77/101/5
f 64/79/5 70/98/5 36/100/5
f 49/53/5 78/102/5 61/103/5
f 79/104/5 61/103/5 67/83/5
f 68/89/4 80/105/4 66/106/4
f 75/107/5 81/108/5 71/109/5
f 80/110/5 82/111/5 83/112/5
f 73/113/5 72/114/5 81/108/5
f 71/109/5 84/115/5 80/110/5
f 84/115/5 58/116/5 82/111/5
f 81/108/5 85/117/5 84/115/5
f 82/111/5 86/118/5 62/119/5
f 83/112/5 62/119/5 87/120/5
f 63/78/1 86/121/1 55/65/1
f 79/122/4 87/123/4 49/76/4
f 66/106/4 83/124/4 79/122/4
f 56/67/3 85/125/3 57/90/3
f 77/126/1 37/39/1 36/38/1
f 35/37/1 64/127/1 36/38/1
f 67/128/3 42/42/3 41/41/3
f 40/40/3 69/129/3 41/41/3
f 64/127/1 35/37/1 43/44/1
f 34/43/1 88/130/1 43/44/1
f 50/131/2 46/47/2 45/46/2
f 44/45/2 78/132/2 45/46/2
f 89/133/2 38/49/2 47/48/2
f 46/47/2 50/131/2 47/48/2
f 74/134/4 33/52/4 48/51/4
f 39/50/4 76/135/4 48/51/4
f 49/53/5 63/95/5 50/54/5
f 51/56/3 72/91/3 52/57/3
f 54/59/5 89/136/5 47/60/5
f 48/62/5 76/97/5 56/63/5
f 55/65/3 86/121/3 58/66/3
f 59/68/5 74/94/5 51/69/5
f 69/129/3 40/40/3 60/71/3
f 37/39/3 77/126/3 60/71/3
f 88/130/4 34/43/4 59/72/4
f 33/52/4 74/134/4 59/72/4
f 76/135/4 39/50/4 54/74/4
f 38/73/4 89/137/4 54/74/4
f 78/132/3 44/45/3 61/75/3
f 42/42/3 67/128/3 61/75/3
f 49/76/1 87/123/1 62/77/1
f 64/79/5 43/81/5 53/70/5
f 43/81/5 88/138/5 59/68/5
f 66/82/5 79/104/5 67/83/5
f 68/85/5 66/82/5 41/84/5
f 70/87/4 75/96/4 71/88/4
f 57/90/3 85/125/3 72/91/3
f 53/58/2 52/57/2 73/92/2
f 74/94/5 48/62/5 57/64/5
f 63/95/5 55/61/5 47/60/5
f 65/93/2 73/92/2 75/96/2
f 76/97/5 54/59/5 55/61/5
f 70/98/5 68/85/5 69/86/5
f 36/100/5 70/98/5 60/99/5
f 64/79/5 65/80/5 70/98/5
f 49/53/5 45/55/5 78/102/5
f 79/104/5 49/53/5 61/103/5
f 68/89/4 71/88/4 80/105/4
f 75/107/5 73/113/5 81/108/5
f 80/110/5 84/115/5 82/111/5
f 73/113/5 52/139/5 72/114/5
f 71/109/5 81/108/5 84/115/5
f 84/115/5 85/117/5 58/116/5
f 81/108/5 72/114/5 85/117/5
f 82/111/5 58/116/5 86/118/5
f 83/112/5 82/111/5 62/119/5
f 63/78/1 62/77/1 86/121/1
f 79/122/4 83/124/4 87/123/4
f 66/106/4 80/105/4 83/124/4
f 56/67/3 58/66/3 85/125/3
f 92/140/1 94/141/1 95/142/1
f 95/142/1 98/143/1 93/144/1
f 97/145/2 101/146/2 96/147/2
f 93/144/1 102/148/1 103/149/1
f 90/150/3 104/151/3 105/152/3
f 106/153/2 107/154/2 97/145/2
f 108/155/2 109/156/2 110/157/2
f 105/152/3 111/158/3 108/155/3
f 103/149/1 112/159/1 90/150/1
f 96/147/2 113/160/2 91/161/2
f 100/162/4 114/163/4 92/140/4
f 115/164/5 111/165/5 104/166/5
f 116/167/5 117/168/5 118/169/5
f 119/170/5 120/171/5 116/167/5
f 114/172/5 116/167/5 94/173/5
f 115/164/5 117/168/5 109/174/5
f 98/175/5 115/164/5 102/176/5
f 94/173/5 118/169/5 98/175/5
f 117/168/5 121/177/5 109/174/5
f 117/168/5 101/178/5 107/179/5
f 102/176/5 104/166/5 112/180/5
f 122/181/5 101/178/5 120/171/5
f 110/157/3 121/182/3 106/153/3
f 99/183/4 119/184/4 100/162/4
f 91/185/4 122/186/4 99/183/4
f 92/140/1 114/163/1 94/141/1
f 95/142/1 94/141/1 98/143/1
f 97/145/2 107/154/2 101/146/2
f 93/144/1 98/143/1 102/148/1
f 90/150/3 112/159/3 104/151/3
f 106/153/2 121/182/2 107/154/2
f 108/155/2 111/158/2 109/156/2
f 105/152/3 104/151/3 111/158/3
f 103/149/1 102/148/1 112/159/1
f 96/147/2 101/146/2 113/160/2
f 100/162/4 119/184/4 114/163/4
f 115/164/5 109/174/5 111/165/5
f 116/167/5 120/171/5 117/168/5
f 119/170/5 122/181/5 120/171/5
f 114/172/5 119/170/5 116/167/5
f 115/164/5 118/169/5 117/168/5
f 98/175/5 118/169/5 115/164/5
f 94/173/5 116/167/5 118/169/5
f 117/168/5 107/179/5 121/177/5
f 117/168/5 120/171/5 101/178/5
f 102/176/5 115/164/5 104/166/5
f 122/181/5 113/187/5 101/178/5
f 110/157/3 109/156/3 121/182/3
f 99/183/4 122/186/4 119/184/4
f 91/185/4 113/188/4 122/186/4
f 123/189/1 124/190/1 125/191/1
f 126/192/4 127/193/4 128/194/4
f 128/194/1 129/195/1 130/196/1
f 131/197/4 132/198/4 133/199/4
f 134/200/3 135/201/3 136/202/3
f 137/203/2 138/204/2 139/205/2
f 136/202/2 140/206/2 137/203/2
f 130/196/1 141/207/1 123/189/1
f 133/199/4 142/208/4 126/192/4
f 135/209/1 143/210/1 140/211/1
f 141/212/2 144/213/2 124/214/2
f 127/215/2 145/216/2 129/217/2
f 146/218/4 147/219/4 135/209/4
f 124/214/4 148/220/4 149/221/4
f 140/211/1 150/222/1 138/223/1
f 129/217/2 151/224/2 141/212/2
f 152/225/3 153/226/3 132/227/3
f 138/223/1 154/228/1 152/225/1
f 139/205/2 152/229/2 131/230/2
f 155/231/3 146/232/3 134/200/3
f 125/191/3 149/233/3 155/231/3
f 156/234/5 157/235/5 145/236/5
f 144/237/5 158/238/5 148/239/5
f 159/240/5 147/241/5 160/242/5
f 153/243/5 150/244/5 161/245/5
f 161/245/5 143/246/5 159/240/5
f 157/235/5 159/240/5 158/238/5
f 162/247/5 161/245/5 157/235/5
f 148/239/5 159/240/5 160/242/5
f 145/236/5 158/238/5 151/248/5
f 142/249/3 156/250/3 127/215/3
f 149/221/4 160/251/4 146/218/4
f 132/227/3 162/252/3 142/249/3
f 123/189/1 141/207/1 124/190/1
f 126/192/4 142/208/4 127/193/4
f 128/194/1 127/193/1 129/195/1
f 131/197/4 152/253/4 132/198/4
f 134/200/3 146/232/3 135/201/3
f 137/203/2 140/206/2 138/204/2
f 136/202/2 135/201/2 140/206/2
f 130/196/1 129/195/1 141/207/1
f 133/199/4 132/198/4 142/208/4
f 135/209/1 147/219/1 143/210/1
f 141/212/2 151/224/2 144/213/2
f 127/215/2 156/250/2 145/216/2
f 146/218/4 160/251/4 147/219/4
f 124/214/4 144/213/4 148/220/4
f 140/211/1 143/210/1 150/222/1
f 129/217/2 145/216/2 151/224/2
f 152/225/3 154/228/3 153/226/3
f 138/223/1 150/222/1 154/228/1
f 139/205/2 138/204/2 152/229/2
f 155/231/3 149/233/3 146/232/3
f 125/191/3 124/190/3 149/233/3
f 156/234/5 162/247/5 157/235/5
f 144/237/5 151/248/5 158/238/5
f 159/240/5 143/246/5 147/241/5
f 153/243/5 154/254/5 150/244/5
f 161/245/5 150/244/5 143/246/5
f 157/235/5 161/245/5 159/240/5
f 162/247/5 153/243/5 161/245/5
f 148/239/5 158/238/5 159/240/5
f 145/236/5 157/235/5 158/238/5
f 142/249/3 162/252/3 156/250/3
f 149/221/4 148/220/4 160/251/4
f 132/227/3 153/226/3 162/252/3
