# Blender v2.78 (sub 0) OBJ File: 'floor.obj'
# www.blender.org
mtllib parkingslot.mtl
o parking_slot_piso_Cube.002
v 2.000026 0.006420 0.875015
v 2.125026 0.006420 1.000015
v 2.125026 0.006420 0.875015
v 1.500026 0.006420 0.875015
v 1.625026 0.006420 1.000015
v 1.625026 0.006420 0.875015
v 2.000026 0.006420 1.125015
v 2.125026 0.006420 1.250015
v 2.125026 0.006420 1.125015
v 1.750026 0.006420 1.125015
v 1.875024 0.006420 1.250015
v 1.875026 0.006420 1.125015
v 1.500026 0.006420 1.125015
v 1.625024 0.006420 1.250015
v 1.625026 0.006420 1.125015
v 1.875026 0.006420 0.875015
v 1.750026 0.006420 1.000015
v 1.875026 0.006420 1.000015
v 1.750026 0.006420 0.625015
v 1.875026 0.006420 0.750015
v 1.875026 0.006420 0.625015
v 1.500026 0.006420 0.625015
v 1.625026 0.006420 0.750015
v 1.625026 0.006420 0.625015
v 2.000026 0.006420 0.625015
v 2.125026 0.006420 0.750015
v 2.125026 0.006420 0.625015
v 1.500026 0.006420 0.750015
v 1.500026 0.006420 1.000015
v 2.250026 0.006420 0.625015
v 2.250026 0.006420 0.750015
v 2.125026 0.006420 0.500015
v 2.250026 0.006420 0.500015
v 2.000026 0.006420 0.500015
v 1.750026 0.006420 0.750015
v 1.750026 0.006420 0.500015
v 1.625026 0.006420 0.500015
v 2.000026 0.006420 0.750015
v 1.875026 0.006420 0.500015
v 2.000026 0.006420 1.000015
v 1.750024 0.006420 1.250015
v 2.000024 0.006420 1.250015
v 2.250026 0.006420 1.125015
v 2.250026 0.006420 1.250015
v 2.250026 0.006420 1.000015
v 1.750026 0.006420 0.875015
v 2.250026 0.006420 0.875015
v 1.500024 0.006420 1.250015
v 1.500026 0.006420 0.500015
vt 0.8281 0.2262
vt 0.5543 -0.0477
vt 0.8281 -0.0477
vt 0.8281 1.3215
vt 0.5543 1.0477
vt 0.8281 1.0477
vt 0.2804 0.2262
vt 0.0066 -0.0477
vt 0.2804 -0.0477
vt 0.2804 0.7738
vt 0.0066 0.5000
vt 0.2804 0.5000
vt 0.2804 1.3215
vt 0.0066 1.0477
vt 0.2804 1.0477
vt 0.8281 0.5000
vt 0.5543 0.7738
vt 0.5543 0.5000
vt 1.3758 0.7738
vt 1.1020 0.5000
vt 1.3758 0.5000
vt 1.3758 1.3215
vt 1.1020 1.0477
vt 1.3758 1.0477
vt 1.3758 0.2262
vt 1.1020 -0.0477
vt 1.3758 -0.0477
vt 1.3758 -0.3215
vt 1.1020 -0.3215
vt 1.6497 -0.0477
vt 1.6497 -0.3215
vt 1.6497 0.2262
vt 1.1020 0.7738
vt 1.6497 0.7738
vt 1.6497 1.0477
vt 1.1020 0.2262
vt 1.6497 0.5000
vt 0.5543 0.2262
vt 0.0066 0.7738
vt 0.5543 1.3215
vt 0.0066 0.2262
vt 0.2804 -0.3215
vt 0.0066 -0.3215
vt 0.5543 -0.3215
vt 0.8281 0.7738
vt 1.1020 1.3215
vt 0.8281 -0.3215
vt 0.0066 1.3215
vt 1.6497 1.3215
vn 0.0000 1.0000 0.0000
usemtl Material.002
s 1
f 1/1/1 2/2/1 3/3/1
f 4/4/1 5/5/1 6/6/1
f 7/7/1 8/8/1 9/9/1
f 10/10/1 11/11/1 12/12/1
f 13/13/1 14/14/1 15/15/1
f 16/16/1 17/17/1 18/18/1
f 19/19/1 20/20/1 21/21/1
f 22/22/1 23/23/1 24/24/1
f 25/25/1 26/26/1 27/27/1
f 30/28/1 26/26/1 31/29/1
f 32/30/1 30/28/1 33/31/1
f 34/32/1 27/27/1 32/30/1
f 24/24/1 35/33/1 19/19/1
f 36/34/1 24/24/1 19/19/1
f 37/35/1 22/22/1 24/24/1
f 21/21/1 38/36/1 25/25/1
f 34/32/1 21/21/1 25/25/1
f 39/37/1 19/19/1 21/21/1
f 16/16/1 40/38/1 1/1/1
f 20/20/1 1/1/1 38/36/1
f 35/33/1 16/16/1 20/20/1
f 15/15/1 41/39/1 10/10/1
f 17/17/1 15/15/1 10/10/1
f 29/40/1 15/15/1 5/5/1
f 12/12/1 42/41/1 7/7/1
f 18/18/1 7/7/1 40/38/1
f 18/18/1 10/10/1 12/12/1
f 43/42/1 8/8/1 44/43/1
f 45/44/1 9/9/1 43/42/1
f 40/38/1 9/9/1 2/2/1
f 46/45/1 5/5/1 17/17/1
f 23/23/1 46/45/1 35/33/1
f 28/46/1 6/6/1 23/23/1
f 47/47/1 2/2/1 45/44/1
f 31/29/1 3/3/1 47/47/1
f 38/36/1 3/3/1 26/26/1
f 1/1/1 40/38/1 2/2/1
f 4/4/1 29/40/1 5/5/1
f 7/7/1 42/41/1 8/8/1
f 10/10/1 41/39/1 11/11/1
f 13/13/1 48/48/1 14/14/1
f 16/16/1 46/45/1 17/17/1
f 19/19/1 35/33/1 20/20/1
f 22/22/1 28/46/1 23/23/1
f 25/25/1 38/36/1 26/26/1
f 30/28/1 27/27/1 26/26/1
f 32/30/1 27/27/1 30/28/1
f 34/32/1 25/25/1 27/27/1
f 24/24/1 23/23/1 35/33/1
f 36/34/1 37/35/1 24/24/1
f 37/35/1 49/49/1 22/22/1
f 21/21/1 20/20/1 38/36/1
f 34/32/1 39/37/1 21/21/1
f 39/37/1 36/34/1 19/19/1
f 16/16/1 18/18/1 40/38/1
f 20/20/1 16/16/1 1/1/1
f 35/33/1 46/45/1 16/16/1
f 15/15/1 14/14/1 41/39/1
f 17/17/1 5/5/1 15/15/1
f 29/40/1 13/13/1 15/15/1
f 12/12/1 11/11/1 42/41/1
f 18/18/1 12/12/1 7/7/1
f 18/18/1 17/17/1 10/10/1
f 43/42/1 9/9/1 8/8/1
f 45/44/1 2/2/1 9/9/1
f 40/38/1 7/7/1 9/9/1
f 46/45/1 6/6/1 5/5/1
f 23/23/1 6/6/1 46/45/1
f 28/46/1 4/4/1 6/6/1
f 47/47/1 3/3/1 2/2/1
f 31/29/1 26/26/1 3/3/1
f 38/36/1 1/1/1 3/3/1
