# Blender v2.78 (sub 0) OBJ File: 'skybox.obj'
# www.blender.org
mtllib skybox.mtl
o Cube.001
v 6.035928 -0.376262 -6.035928
v 6.035928 -0.376263 6.035928
v -6.035929 -0.376263 6.035926
v -6.035926 -0.376262 -6.035931
v 6.035931 5.643938 -6.035924
v -6.035928 5.643938 -6.035927
v -6.035931 5.643937 6.035927
v 6.035925 5.643937 6.035933
vt 0.2494 0.0007
vt 0.2494 0.0528
vt -0.0005 0.0528
vt -0.0005 0.0007
vt 0.3116 0.4453
vt 0.0899 0.5018
vt 0.0023 0.3734
vt 0.2494 0.3310
vt 0.4994 0.0528
vt 0.4994 0.3875
vt 0.9993 0.0528
vt 0.9993 0.3055
vt 0.7522 0.3706
vt 0.7494 0.0528
vn 0.0000 -1.0000 -0.0000
vn -0.0000 1.0000 0.0000
vn 1.0000 -0.0000 0.0000
vn -0.0000 -0.0000 1.0000
vn -1.0000 -0.0000 -0.0000
vn 0.0000 0.0000 -1.0000
usemtl Material.001
s 1
f 1/1/1 2/2/1 3/3/1 4/4/1
f 5/5/2 6/6/2 7/7/2 8/8/2
f 1/9/3 5/10/3 8/8/3 2/2/3
f 2/2/4 8/8/4 7/7/4 3/3/4
f 3/11/5 7/12/5 6/13/5 4/14/5
f 5/10/6 1/9/6 4/14/6 6/13/6
