# Blender v2.78 (sub 0) OBJ File: 'skybox2.obj'
# www.blender.org
mtllib skybox2.mtl
o Cube.001
v 6.008554 6.982697 -6.053242
v 6.008554 -2.784068 -6.053245
v -6.015438 -2.784066 -6.053245
v -6.015435 6.982699 -6.053242
v 6.008557 6.982695 5.939415
v -6.015437 6.982696 5.939415
v -6.015440 -2.784068 5.939415
v 6.008552 -2.784073 5.939415
vt 0.4994 0.6653
vt 0.4999 0.3337
vt 0.7489 0.3330
vt 0.7493 0.6658
vt 0.2506 0.6654
vt 0.0001 0.6654
vt 0.0001 0.3334
vt 0.2504 0.3334
vt 0.2504 0.0009
vt 0.5000 0.0009
vt 0.9998 0.3330
vt 1.0000 0.6658
vt 0.4989 0.9960
vt 0.2518 0.9973
vn 0.0000 0.0000 -1.0000
vn -0.0000 -0.0000 1.0000
vn 1.0000 -0.0000 0.0000
vn -0.0000 -1.0000 -0.0000
vn -1.0000 0.0000 -0.0000
vn 0.0000 1.0000 0.0000
usemtl Material.001
s 1
f 1/1/1 2/2/1 3/3/1 4/4/1
f 5/5/2 6/6/2 7/7/2 8/8/2
f 1/1/3 5/5/3 8/8/3 2/2/3
f 2/2/4 8/8/4 7/9/4 3/10/4
f 3/3/5 7/11/5 6/12/5 4/4/5
f 5/5/6 1/1/6 4/13/6 6/14/6
